<?xml version="1.0" standalone="no"?>
<!DOCTYPE svg PUBLIC "-//W3C//DTD SVG 20010904//EN"
 "http://www.w3.org/TR/2001/REC-SVG-20010904/DTD/svg10.dtd">
<svg version="1.0" xmlns="http://www.w3.org/2000/svg"
 width="1024.000000pt" height="1024.000000pt" viewBox="0 0 1024.000000 1024.000000"
 preserveAspectRatio="xMidYMid meet">
<metadata>
Created by potrace 1.14, written by Peter Selinger 2001-2017
</metadata>
<g transform="translate(0.000000,1024.000000) scale(0.100000,-0.100000)"
fill="#000000" stroke="none">
<path d="M4755 10170 c-282 -19 -459 -80 -967 -332 -295 -146 -453 -212 -614
-258 -60 -17 -134 -38 -164 -46 -75 -21 -168 -77 -294 -178 -127 -102 -165
-124 -416 -248 -149 -73 -238 -126 -380 -223 -358 -247 -427 -320 -620 -655
-109 -189 -148 -247 -235 -350 -83 -98 -153 -196 -185 -259 -12 -24 -65 -108
-117 -185 -53 -78 -114 -179 -137 -226 -39 -81 -41 -89 -42 -185 -1 -100 -1
-100 -56 -215 -221 -461 -382 -1023 -434 -1513 -22 -205 -14 -550 14 -684 82
-378 239 -718 647 -1398 216 -361 252 -424 465 -820 240 -447 322 -588 445
-775 278 -419 555 -682 1000 -947 611 -365 1066 -546 1580 -628 135 -22 512
-31 690 -16 519 43 1346 163 1767 257 301 67 557 175 808 342 188 126 282 203
451 371 277 278 491 572 722 991 94 171 159 304 296 608 107 241 221 455 446
842 357 615 491 891 616 1270 150 458 192 819 182 1565 -1 83 -2 197 -1 255 2
123 -13 175 -96 341 -30 58 -70 148 -91 200 -21 52 -64 146 -96 209 -40 80
-61 135 -68 180 -33 206 -227 568 -441 825 -37 44 -121 150 -187 235 -213 274
-334 369 -608 479 -60 23 -133 70 -290 182 -253 181 -282 198 -416 244 -57 20
-194 81 -304 135 -299 148 -372 172 -740 240 -121 22 -346 74 -500 115 -712
188 -933 232 -1291 255 -172 11 -175 11 -339 0z m-1233 -3365 c70 -33 159 -34
229 -3 49 21 55 21 222 9 260 -18 619 -51 631 -58 5 -4 76 -10 156 -14 80 -4
231 -15 335 -24 252 -21 641 -34 1010 -35 357 0 560 -12 790 -46 327 -48 532
-73 805 -99 1120 -106 1260 -126 1590 -230 113 -35 248 -75 300 -89 81 -20 96
-27 101 -47 11 -38 10 -341 -1 -489 -38 -504 -131 -845 -359 -1315 -95 -195
-181 -352 -450 -818 -169 -293 -289 -526 -391 -757 -299 -679 -575 -1109 -931
-1455 -298 -289 -601 -461 -951 -539 -369 -83 -1022 -182 -1593 -242 -220 -24
-533 -23 -690 0 -411 62 -828 225 -1350 531 -270 158 -424 274 -585 441 -228
236 -358 435 -710 1089 -212 393 -304 556 -450 795 -348 569 -534 943 -605
1215 -110 425 10 1163 300 1840 26 60 62 139 81 176 l33 67 93 7 c51 4 173 22
271 41 232 44 369 52 1081 58 313 3 571 8 574 11 3 3 96 5 208 5 194 0 204 -1
256 -25z"/>
<path d="M2795 6603 c-113 -18 -351 -97 -389 -130 -11 -10 -47 -36 -78 -57
-221 -147 -403 -414 -491 -721 -115 -399 -91 -771 70 -1088 87 -173 273 -374
429 -464 102 -59 211 -105 322 -135 106 -29 393 -32 492 -5 198 55 320 123
478 268 163 150 354 469 436 728 115 363 51 756 -178 1101 -156 233 -397 407
-663 477 -80 21 -125 26 -248 28 -82 2 -163 1 -180 -2z m260 -254 c215 -29
417 -139 552 -297 109 -129 103 -142 -75 -140 -142 2 -205 -14 -278 -73 -22
-18 -44 -27 -53 -24 -42 16 -132 26 -186 21 l-61 -6 1 78 c0 70 -4 86 -37 152
-20 41 -71 118 -113 170 -86 107 -88 102 28 119 88 12 135 12 222 0z m-522
-283 c49 -61 93 -120 99 -129 7 -14 4 -33 -13 -75 -12 -31 -24 -59 -25 -61 -2
-2 -29 20 -61 49 -67 60 -151 106 -223 121 -27 6 -50 15 -50 20 0 11 170 189
179 188 3 0 46 -51 94 -113z m-171 -476 c40 -34 91 -71 113 -82 l40 -20 1 -91
c1 -109 23 -204 70 -304 30 -64 34 -80 34 -158 0 -73 -3 -87 -17 -91 -10 -4
-45 -19 -79 -34 -72 -32 -186 -141 -224 -213 -14 -26 -29 -46 -35 -44 -18 6
-84 101 -124 177 -86 165 -116 319 -108 542 6 151 18 231 57 359 l19 65 90
-22 c82 -20 96 -27 163 -84z m1476 13 c53 -179 37 -402 -43 -612 -28 -73 -39
-85 -50 -52 -10 33 -94 102 -158 131 -34 15 -101 40 -149 55 l-87 27 39 52
c97 128 125 255 85 381 -6 20 -4 21 117 17 107 -3 130 -1 173 16 28 12 53 21
56 21 3 1 11 -16 17 -36z m-541 -754 l121 -39 -10 -37 c-19 -71 12 -158 73
-203 l38 -27 -45 -51 c-167 -191 -435 -283 -693 -238 -109 19 -254 74 -259 98
-10 54 98 186 171 208 133 39 227 133 227 227 0 41 10 49 67 56 28 3 73 17
100 31 28 15 56 22 68 19 11 -3 75 -23 142 -44z"/>
<path d="M7575 5940 c-43 -17 -58 -18 -106 -10 -131 24 -292 -49 -449 -202
-30 -30 -70 -64 -88 -77 -18 -12 -41 -39 -51 -59 -11 -21 -40 -68 -66 -107
-215 -319 -344 -814 -306 -1173 15 -147 44 -251 102 -371 44 -89 63 -116 137
-191 74 -75 101 -94 182 -133 139 -66 220 -82 425 -82 188 0 260 12 406 65
323 117 576 417 748 889 63 171 82 258 88 411 9 206 -21 323 -139 554 -146
284 -339 440 -607 490 -113 22 -213 20 -276 -4z m270 -266 c88 -23 169 -70
236 -137 32 -33 59 -63 59 -67 0 -4 -18 -10 -39 -14 -46 -7 -94 -44 -109 -83
-6 -16 -16 -54 -22 -86 -12 -61 -13 -62 -71 -71 -60 -10 -133 -72 -151 -128
-2 -6 -26 6 -53 27 -64 49 -137 82 -211 96 -33 7 -70 21 -84 34 -14 12 -39 31
-56 43 -23 16 -42 46 -69 109 -20 49 -46 102 -56 119 -10 17 -19 34 -19 37 0
10 116 95 154 113 32 16 45 17 104 6 66 -11 109 -7 162 17 31 14 142 6 225
-15z m-768 -560 l29 -36 -33 -64 c-57 -114 -55 -222 7 -346 l32 -65 -43 -84
-44 -84 -88 -45 c-49 -25 -106 -60 -128 -78 l-38 -33 -7 26 c-13 54 4 357 26
460 29 136 81 289 141 414 l50 105 33 -67 c19 -37 47 -83 63 -103z m1249 -46
c16 -71 14 -229 -2 -271 -10 -27 -61 -20 -123 17 -31 19 -82 43 -114 53 -49
16 -57 21 -57 43 0 20 7 29 34 38 82 30 177 155 193 257 l7 40 23 -52 c13 -29
31 -85 39 -125z m-290 -523 c71 -46 130 -75 154 -75 29 0 26 -15 -26 -121
-153 -315 -359 -492 -632 -545 -112 -21 -364 -16 -388 9 -3 3 2 20 12 38 9 18
19 62 22 98 3 38 15 87 28 116 13 27 24 66 24 86 0 20 6 42 14 48 8 7 23 31
34 54 38 80 39 80 115 66 165 -30 361 65 452 220 l30 51 55 -6 c38 -4 71 -16
106 -39z"/>
<path d="M4876 4621 c-50 -33 -66 -72 -78 -179 -9 -91 -9 -103 10 -145 48
-109 187 -117 236 -14 39 83 44 222 11 287 -35 68 -118 91 -179 51z"/>
<path d="M5423 4561 c-18 -11 -41 -38 -53 -60 -47 -92 -65 -243 -36 -299 55
-106 178 -104 230 4 24 50 41 242 26 288 -24 74 -105 106 -167 67z"/>
<path d="M3370 3871 c-465 -103 -663 -227 -795 -496 -128 -260 -124 -582 14
-1125 56 -222 171 -621 187 -650 7 -14 27 -56 44 -94 44 -100 131 -225 202
-292 145 -134 336 -237 653 -352 94 -35 107 -37 220 -37 111 0 125 2 180 28
94 44 159 102 250 222 97 127 175 199 245 226 64 24 211 42 280 34 84 -10 195
-40 430 -117 252 -83 395 -137 540 -206 249 -119 568 -165 774 -112 268 68
469 306 537 635 23 112 25 278 3 383 -40 199 -155 478 -292 710 -146 247 -280
396 -469 522 -126 85 -412 229 -528 266 -111 36 -254 42 -450 19 -232 -28
-401 -10 -560 58 -44 19 -118 46 -165 62 -119 39 -305 114 -435 175 -233 109
-399 150 -635 156 -116 3 -162 0 -230 -15z m1215 -435 c77 -25 146 -50 154
-55 29 -18 -155 -340 -233 -409 -51 -45 -90 -43 -150 6 -26 21 -71 46 -102 56
-78 25 -86 45 -46 129 50 107 206 331 225 324 7 -2 75 -25 152 -51z m1689
-1935 l29 -11 -4 -265 c-2 -146 -6 -265 -9 -265 -3 0 -81 20 -175 43 l-170 43
-3 238 -2 239 152 -5 c84 -3 166 -11 182 -17z m-3005 -26 c40 -19 86 -35 101
-35 42 0 125 -19 143 -33 13 -10 14 -39 7 -210 -4 -112 -12 -203 -18 -209 -7
-7 -62 19 -175 82 -91 50 -173 97 -182 104 -15 11 -15 23 -1 157 16 154 21
179 40 179 6 0 44 -16 85 -35z"/>
</g>
</svg>
